# xmcd
#
# Track frame offsets:
# 150
# 16417
# 32403
# 47838
# 63570
# 83081
# 99320
# 116521
# 128616
# 141934
# 158144
# 172809
# 188969
# 207059
# 222358
# 235707
# 250496
# 269514
# 281372
# 297286
#
# Disc length: 4166 seconds
#
#
# Revision: 0
# Processed by: cddbd v1.5.2PL0 Copyright (c) Steve Scherf et al.
# Submitted via: FreeRIP 2.941 
#
DISCID=1a104414
DTITLE=Roberta Miranda - Perfil
DYEAR=2006
DGENRE=Country
TTITLE0=o pior já passou
TTITLE1=alma sertaneja
TTITLE2=eu quero sempre mais
TTITLE3=amanhã
TTITLE4=a mulher em mim
TTITLE5=ideal pra mim
TTITLE6=majestade o sabiá
TTITLE7=atração fatal
TTITLE8=foi você quem quis assim
TTITLE9=vá com deus
TTITLE10=dois em um
TTITLE11=faz amor comigo
TTITLE12=pele de amor
TTITLE13=um minuto a mais
TTITLE14=sã tantas coisas
TTITLE15=coração socialista
TTITLE16=cabecinha no ombro
TTITLE17=peão do mundo inteiro
TTITLE18=meu dengo
TTITLE19=vai
EXTD=
EXTT0=
EXTT1=
EXTT2=
EXTT3=
EXTT4=
EXTT5=
EXTT6=
EXTT7=
EXTT8=
EXTT9=
EXTT10=
EXTT11=
EXTT12=
EXTT13=
EXTT14=
EXTT15=
EXTT16=
EXTT17=
EXTT18=
EXTT19=
PLAYORDER=
